<svg width="512" height="513" fill="none" xmlns="http://www.w3.org/2000/svg"><path d="M0 30C0 13.431 13.431 0 30 0h452c16.569 0 30 13.431 30 30v452c0 16.569-13.431 30-30 30H30c-16.569 0-30-13.431-30-30V30z" fill="#000"/><g clip-path="url(#a)"><path d="m253.551 332.391.098.271h44.715l-.206-.553L190.977 44.295l-.099-.266h-39.582l-.1.266L44.016 332.11l-.206.553h44.717l.097-.273 23.395-66.146h117.718l23.814 66.148zm192.391-98.056-.297-.314-.298.314L275.96 413.129l-76.679-81.159-.297-.315-.298.315-29.575 31.217-.267.282.267.281 106.761 112.69.298.315.297-.315 199.05-210.325.266-.282-.266-.282-29.575-31.216zm-232.018-13.191H128.25l42.837-120.575 42.837 120.575z" fill="url(#b)" stroke="#000" stroke-width=".82"/></g><defs><linearGradient id="b" x1="259.81" y1="44.438" x2="259.81" y2="476.159" gradientUnits="userSpaceOnUse"><stop stop-color="#0FFF37" stop-opacity=".96"/><stop offset="1" stop-color="#5100E7" stop-opacity=".98"/></linearGradient><clipPath id="a"><path fill="#fff" transform="translate(26 26)" d="M0 0h449.219v450.159H0z"/></clipPath></defs></svg>